<?xml version="1.0" encoding="UTF-8" standalone="no"?>
<svg width="143px" height="153px" viewBox="0 0 143 153" version="1.1" xmlns="http://www.w3.org/2000/svg" xmlns:xlink="http://www.w3.org/1999/xlink" xmlns:sketch="http://www.bohemiancoding.com/sketch/ns">
    <!-- Generator: Sketch 3.3.3 (12072) - http://www.bohemiancoding.com/sketch -->
    <title>Untitled</title>
    <desc>Created with Sketch.</desc>
    <defs></defs>
    <g id="Page-1" stroke="none" stroke-width="1" fill="none" fill-rule="evenodd" sketch:type="MSPage">
        <g id="image_404" sketch:type="MSLayerGroup" fill="#F69C00">
            <g id="Page-1" sketch:type="MSShapeGroup">
                <g id="404-page">
                    <path d="M100.974727,64.398601 L96.350235,59.078733 L91.821978,63.015087 L96.999688,68.97136 L91.821978,74.927634 L96.350235,78.863988 L100.974727,73.54412 L105.599218,78.863988 L110.127475,74.927634 L104.949765,68.97136 L110.127475,63.015087 L105.599218,59.078733 L100.974727,64.398601 L100.974727,64.398601 Z M41.974727,60.398601 L37.350235,55.078733 L32.821978,59.015087 L37.999688,64.97136 L32.821978,70.927634 L37.350235,74.863988 L41.974727,69.54412 L46.599218,74.863988 L51.127475,70.927634 L45.949765,64.97136 L51.127475,59.015087 L46.599218,55.078733 L41.974727,60.398601 L41.974727,60.398601 Z M2.286926,152.391794 C2.286926,152.391794 -14.533588,28.279659 57.880192,16.322846 C130.293971,4.366033 142.301777,88.929095 142.301781,152.391795 C142.301774,152.391788 2.286926,152.391794 2.286926,152.391794 L2.286926,152.391794 Z M20.379778,33.242217 C20.379778,33.242217 40.709209,17.186139 45.007442,16.560313 C49.305674,15.934488 26.246678,-2.153618 22.638865,0.556934 C19.031053,3.267486 20.379778,33.242217 20.379778,33.242217 L20.379778,33.242217 Z M121.989651,36.581887 C121.989651,36.581887 106.307485,21.653791 101.550619,18.951592 C96.793753,16.249394 124.316288,6.322468 124.316288,6.322468 C130.209048,12.335272 121.989651,36.581887 121.989651,36.581887 L121.989651,36.581887 Z M100.5,93 C111.821837,93 121,82.478692 121,69.5 C121,56.521308 111.821837,46 100.5,46 C89.178163,46 80,56.521308 80,69.5 C80,82.478692 89.178163,93 100.5,93 L100.5,93 Z M66.603537,83.462139 C70.103537,83.462139 75.256013,75.058887 73.603537,72.462139 C71.951061,69.865391 61.397903,69.642421 59.603537,72.462139 C57.809171,75.281857 63.103537,83.462139 66.603537,83.462139 L66.603537,83.462139 Z" id="Path-57"></path>
                </g>
            </g>
        </g>
    </g>
</svg>