<?xml version="1.0" encoding="UTF-8" standalone="no"?>
<svg width="375px" height="667px" viewBox="0 0 375 667" version="1.1" xmlns="http://www.w3.org/2000/svg" xmlns:xlink="http://www.w3.org/1999/xlink" xmlns:sketch="http://www.bohemiancoding.com/sketch/ns">
    <!-- Generator: Sketch 3.3.3 (12072) - http://www.bohemiancoding.com/sketch -->
    <title>404 page</title>
    <desc>Created with Sketch.</desc>
    <defs></defs>
    <g id="Page-1" stroke="none" stroke-width="1" fill="none" fill-rule="evenodd" sketch:type="MSPage">
        <g id="404-page" sketch:type="MSArtboardGroup">
            <path id="Path-56" stroke="#9C5A14" stroke-width="3" sketch:type="MSShapeGroup" d=""></path>
            <path d="M216.974727,233.398601 L212.350235,228.078733 L207.821978,232.015087 L212.999688,237.97136 L207.821978,243.927634 L212.350235,247.863988 L216.974727,242.54412 L221.599218,247.863988 L226.127475,243.927634 L220.949765,237.97136 L226.127475,232.015087 L221.599218,228.078733 L216.974727,233.398601 L216.974727,233.398601 Z M157.974727,229.398601 L153.350235,224.078733 L148.821978,228.015087 L153.999688,233.97136 L148.821978,239.927634 L153.350235,243.863988 L157.974727,238.54412 L162.599218,243.863988 L167.127475,239.927634 L161.949765,233.97136 L167.127475,228.015087 L162.599218,224.078733 L157.974727,229.398601 L157.974727,229.398601 Z M118.286926,321.391794 C118.286926,321.391794 101.466412,197.279659 173.880192,185.322846 C246.293971,173.366033 258.301777,257.929095 258.301781,321.391795 C258.301774,321.391788 118.286926,321.391794 118.286926,321.391794 Z M136.379778,202.242217 C136.379778,202.242217 156.709209,186.186139 161.007442,185.560313 C165.305674,184.934488 142.246678,166.846382 138.638865,169.556934 C135.031053,172.267486 136.379778,202.242217 136.379778,202.242217 Z M237.989651,205.581887 C237.989651,205.581887 222.307485,190.653791 217.550619,187.951592 C212.793753,185.249394 240.316288,175.322468 240.316288,175.322468 C246.209048,181.335272 237.989651,205.581887 237.989651,205.581887 Z M216.5,262 C227.821837,262 237,251.478692 237,238.5 C237,225.521308 227.821837,215 216.5,215 C205.178163,215 196,225.521308 196,238.5 C196,251.478692 205.178163,262 216.5,262 Z M182.603537,252.462139 C186.103537,252.462139 191.256013,244.058887 189.603537,241.462139 C187.951061,238.865391 177.397903,238.642421 175.603537,241.462139 C173.809171,244.281857 179.103537,252.462139 182.603537,252.462139 Z" id="Path-57" fill="#FFFFFF" sketch:type="MSShapeGroup"></path>
            <text id="404-" sketch:type="MSTextLayer" font-family="American Typewriter" font-size="72" font-weight="bold" letter-spacing="0.899999976" fill="#FFFFFF">
                <tspan x="116" y="388">404</tspan>
                <tspan x="260.18" y="388"> </tspan>
            </text>
            <text id="Page-Not-Found" sketch:type="MSTextLayer" font-family="American Typewriter" font-size="20" font-weight="normal" letter-spacing="-0.5" fill="#FFFFFF">
                <tspan x="116" y="419">Page Not Foun</tspan>
                <tspan x="246.08" y="419">d</tspan>
            </text>
        </g>
    </g>
</svg>